<?xml version="1.0" encoding="UTF-8"?>
<svg width="114px" height="114px" viewBox="0 0 114 114" version="1.1" xmlns="http://www.w3.org/2000/svg" xmlns:xlink="http://www.w3.org/1999/xlink">
    <title>9备份</title>
    <g id="页面-1" stroke="none" stroke-width="1" fill="none" fill-rule="evenodd">
        <g id="画板备份" transform="translate(-2204.000000, -795.000000)">
            <g id="9备份" transform="translate(2204.000000, 795.000000)">
                <rect id="矩形" x="0" y="0" width="114" height="114"></rect>
                <path d="M56.7602398,12.7669206 C57.0086974,12.7055606 57.2805631,12.738984 57.516946,12.8817347 L57.516946,12.8817347 L107.767635,95.8701508 C107.910386,96.1065337 107.943809,96.3783993 107.882449,96.6268569 C107.821089,96.8753146 107.664946,97.1003641 107.428563,97.2431148 C107.272584,97.3373101 107.093832,97.3870968 106.911617,97.3870968 L106.911617,97.3870968 L7.08838316,97.3870968 C6.81224078,97.3870968 6.56224078,97.275168 6.38127637,97.0942036 C6.20031197,96.9132391 6.08838316,96.6632391 6.08838316,96.3870968 C6.08838316,96.2048818 6.13816984,96.0261301 6.23236512,95.8701508 L6.23236512,95.8701508 L56.143982,13.2208068 C56.2867326,12.9844239 56.5117822,12.8282806 56.7602398,12.7669206 Z" id="三角形" stroke="#6487FA" stroke-width="6"></path>
                <circle id="椭圆形" stroke="#6487FA" fill="#6487FA" cx="91" cy="88" r="2.5"></circle>
                <circle id="椭圆形备份" stroke="#6487FA" fill="#6487FA" cx="23" cy="88" r="2.5"></circle>
                <circle id="椭圆形备份-2" stroke="#6487FA" fill="#6487FA" cx="57" cy="31" r="2.5"></circle>
                <path d="M57.1895223,45.5 C60.7893763,45.5 63.7990074,46.641572 66.2132504,48.9370817 C68.621433,51.2268292 69.8174114,54.1901532 69.8174114,57.8197227 C69.8174114,61.3904346 68.4159915,65.2929296 65.6440946,69.5345404 L65.3418629,69.9902967 L55.7103013,84.2880807 L51.8372202,81.4342315 L60.2755487,69.2673392 L58.4761658,69.7285095 C57.3335685,70.0022115 56.2062061,70.1394453 55.0939908,70.1394453 C51.926043,70.1394453 49.3709282,68.9905051 47.4338917,66.6817141 C45.4746774,64.346489 44.5,61.5350558 44.5,58.2511556 C44.5,54.4950013 45.6774586,51.425642 48.0515503,49.0515503 C50.4250495,46.6780511 53.4735875,45.5 57.1895223,45.5 Z M57.2819723,49.4922958 C54.9994368,49.4922958 53.1850584,50.3606284 51.8341841,52.0879759 C50.5128976,53.7774898 49.848228,55.7692894 49.848228,58.0662558 C49.848228,60.3244018 50.5141911,62.2767514 51.8381098,63.926224 C53.1886038,65.6088067 54.991237,66.4553159 57.2511556,66.4553159 C59.5116318,66.4553159 61.3151982,65.5982639 62.6661878,63.8929163 C63.9883938,62.2239022 64.6540832,60.2417031 64.6540832,57.9429892 C64.6540832,55.6436645 63.9982845,53.6721657 62.6975261,52.0245384 C61.3685559,50.3411761 59.5657863,49.4922958 57.2819723,49.4922958 Z" id="9" stroke="#6487FA" fill="#6487FA"></path>
            </g>
        </g>
    </g>
</svg>